<svg xmlns="http://www.w3.org/2000/svg" viewBox="0 0 800 600"><style>.primary{fill:#4CAF50;}.secondary{fill:#2E7D32;}.accent{fill:#81C784;}</style><rect width="800" height="600" fill="#f5f5f5"/><path class="secondary" d="M100 400h600v100H100z"/><path class="primary" d="M150 300c0 0 100-200 250-200s250 200 250 200H150z"/><path class="accent" d="M200 350c0 0 50-100 150-100s150 100 150 100H200z"/><path d="M300 250c0 0 25-50 75-50s75 50 75 50H300z" fill="#a5d6a7"/><path class="secondary" d="M50 500h700v50H50z"/><circle class="accent" cx="250" cy="450" r="20"/><circle class="accent" cx="350" cy="450" r="20"/><circle class="accent" cx="450" cy="450" r="20"/><circle class="accent" cx="550" cy="450" r="20"/></svg>