<svg xmlns="http://www.w3.org/2000/svg" style="display: none;">
  <symbol id="function-hall" viewBox="0 0 24 24">
    <path d="M21,7L9,19L3.5,13.5L4.91,12.09L9,16.17L19.59,5.59L21,7Z" />
  </symbol>
  
  <symbol id="composting" viewBox="0 0 24 24">
    <path d="M12,3L2,12H5V20H19V12H22L12,3M12,7.7C14.1,7.7 15.8,9.4 15.8,11.5C15.8,13.6 14.1,15.3 12,15.3C9.9,15.3 8.2,13.6 8.2,11.5C8.2,9.4 9.9,7.7 12,7.7Z" />
  </symbol>
  
  <symbol id="bioenzyme" viewBox="0 0 24 24">
    <path d="M12,2A10,10 0 0,1 22,12A10,10 0 0,1 12,22A10,10 0 0,1 2,12A10,10 0 0,1 12,2M12,4A8,8 0 0,0 4,12A8,8 0 0,0 12,20A8,8 0 0,0 20,12A8,8 0 0,0 12,4M12,6A6,6 0 0,1 18,12A6,6 0 0,1 12,18A6,6 0 0,1 6,12A6,6 0 0,1 12,6M12,8A4,4 0 0,0 8,12A4,4 0 0,0 12,16A4,4 0 0,0 16,12A4,4 0 0,0 12,8Z" />
  </symbol>
  
  <symbol id="process-arrow" viewBox="0 0 24 24">
    <path d="M4,11V13H16L10.5,18.5L11.92,19.92L19.84,12L11.92,4.08L10.5,5.5L16,11H4Z" />
  </symbol>
</svg>